<svg xmlns="http://www.w3.org/2000/svg" width="16" height="16" fill="#0d6efd" viewBox="0 0 16 16">
  <defs>
    <!-- White shows, black hides -->
    <mask id="virus-mask">
      <!-- full white background -->
      <rect width="16" height="16" fill="white"/>
      <!-- thick black stroke for knockout band -->
      <line x1="0" y1="16" x2="16" y2="0"
            stroke="black" stroke-width="4" stroke-linecap="round"/>
    </mask>
  </defs>

  <!-- Virus shape, masked so slash has clear margins -->
  <path d="M8 0a1 1 0 0 1 1 1v1.402c0 .511.677.693.933.25l.7-1.214a1 1 0 0 1 1.733 1l-.701 1.214c-.256.443.24.939.683.683l1.214-.701a1 1 0 0 1 1 1.732l-1.214.701c-.443.256-.262.933.25.933H15a1 1 0 1 1 0 2h-1.402c-.512 0-.693.677-.25.933l1.214.701a1 1 0 1 1-1 1.732l-1.214-.7c-.443-.257-.939.24-.683.682l.701 1.214a1 1 0 1 1-1.732 1l-.701-1.214c-.256-.443-.933-.262-.933.25V15a1 1 0 1 1-2 0v-1.402c0-.512-.677-.693-.933-.25l-.701 1.214a1 1 0 0 1-1.732-1l.7-1.214c.257-.443-.24-.939-.682-.683l-1.214.701a1 1 0 1 1-1-1.732l1.214-.701c.443-.256.261-.933-.25-.933H1a1 1 0 1 1 0-2h1.402c.511 0 .693-.677.25-.933l-1.214-.701a1 1 0 1 1 1-1.732l1.214.701c.443.256.939-.24.683-.683l-.701-1.214a1 1 0 0 1 1.732-1l.701 1.214c.256.443.933.261.933-.25V1a1 1 0 0 1 1-1m2 5a1 1 0 1 0-2 0 1 1 0 0 0 2 0M6 7a1 1 0 1 0-2 0 1 1 0 0 0 2 0m1 4a1 1 0 1 0 0-2 1 1 0 0 0 0 2m5-3a1 1 0 1 0-2 0 1 1 0 0 0 2 0" 
        mask="url(#virus-mask)"/>

  <!-- Visible slash line, thinner than mask cutout -->
  <line x1="0" y1="16" x2="16" y2="0"
        stroke="#0d6efd" stroke-width="2" stroke-linecap="round"/>
</svg>
